<svg xmlns="http://www.w3.org/2000/svg" style="background: rgba(0, 0, 0, 0);" preserveAspectRatio="xMidYMid" viewBox="105.26 53.81 289.47 44.93"><defs><filter id="editing-extrusion" x="-100%" y="-100%" width="300%" height="300%"><feFlood result="color1" flood-color="#444"/><feConvolveMatrix order="8,8" divisor="1" kernelMatrix="1 0 0 0 0 0 0 0 0 1 0 0 0 0 0 0 0 0 1 0 0 0 0 0 0 0 0 1 0 0 0 0 0 0 0 0 1 0 0 0 0 0 0 0 0 1 0 0 0 0 0 0 0 0 1 0 0 0 0 0 0 0 0 1" in="SourceAlpha" result="extrude"/><feComposite in="color1" in2="extrude" result="comp-extrude" operator="in"/><feOffset dx="4" dy="4" in="comp-extrude" result="offset-extrude"/><feMerge><feMergeNode in="offset-extrude"/><feMergeNode in="SourceGraphic"/></feMerge></filter></defs><g filter="url(#editing-extrusion)"><g transform="translate(104.75497651100159, 97.46500015258789)"><path d="M14.21 0L0.51 0L8.32-42.05L8.32-42.05Q14.66-42.75 23.90-42.75L23.90-42.75L23.90-42.75Q33.15-42.75 37.44-40.06L37.44-40.06L37.44-40.06Q41.73-37.38 41.73-31.97L41.73-31.97L41.73-31.97Q41.73-26.56 38.94-23.17L38.94-23.17L38.94-23.17Q36.16-19.78 31.36-18.69L31.36-18.69L31.36-18.69Q32.45-13.38 34.94-9.09L34.94-9.09L34.94-9.09Q37.25-5.06 39.94-3.78L39.94-3.78L39.94-3.78Q38.98-1.09 37.02 0.10L37.02 0.10L37.02 0.10Q35.07 1.28 32.29 1.28L32.29 1.28L32.29 1.28Q29.50 1.28 27.33-0.35L27.33-0.35L27.33-0.35Q25.15-1.98 23.42-4.99L23.42-4.99L23.42-4.99Q19.78-11.52 19.39-21.82L19.39-21.82L19.84-21.82L19.84-21.82Q24.58-21.95 26.94-24.42L26.94-24.42L26.94-24.42Q29.31-26.88 29.31-32.06L29.31-32.06L29.31-32.06Q29.31-38.53 23.87-38.78L23.87-38.78L22.46-38.78L22.46-38.78Q21.89-38.78 21.57-38.72L21.57-38.72L14.21 0ZM72-9.86L72-9.86L72-9.86Q73.22-8.32 73.22-5.82L73.22-5.82L73.22-5.82Q73.22-2.37 70.66-0.54L70.66-0.54L70.66-0.54Q68.10 1.28 64.06 1.28L64.06 1.28L64.06 1.28Q61.76 1.28 58.24 0.77L58.24 0.77L58.24 0.77Q51.33-0.32 49.22-0.32L49.22-0.32L49.22-0.32Q47.10-0.32 46.27-0.22L46.27-0.22L46.27-0.22Q45.44-0.13 44.10 0L44.10 0L51.97-42.24L79.55-42.24L79.55-42.24Q79.55-38.34 77.66-36.29L77.66-36.29L77.66-36.29Q75.78-34.24 72.06-34.24L72.06-34.24L72.06-34.24Q68.35-34.24 64.58-35.97L64.58-35.97L62.59-24.77L73.98-24.77L73.98-24.77Q73.98-21.38 72.32-19.49L72.32-19.49L72.32-19.49Q70.66-17.60 67.87-17.60L67.87-17.60L67.87-17.60Q65.09-17.60 63.36-18.24L63.36-18.24L63.36-18.24Q61.63-18.88 61.44-19.07L61.44-19.07L59.14-6.98L59.14-6.98Q60.67-6.78 63.55-6.78L63.55-6.78L63.55-6.78Q68.48-6.78 72-9.86ZM105.02-20.61L117.95-21.76L117.95-21.76Q113.34-11.65 113.34 0.06L113.34 0.06L113.34 0.06Q111.62 1.28 109.09 1.28L109.09 1.28L109.09 1.28Q106.56 1.28 104.96 0.10L104.96 0.10L104.96 0.10Q103.36-1.09 103.04-2.30L103.04-2.30L103.04-2.30Q101.44-0.64 98.85 0.32L98.85 0.32L98.85 0.32Q96.26 1.28 93.50 1.28L93.50 1.28L93.50 1.28Q90.75 1.28 88.35 0.38L88.35 0.38L88.35 0.38Q85.95-0.51 84.10-2.50L84.10-2.50L84.10-2.50Q80-6.85 80-15.10L80-15.10L80-15.10Q80-27.90 86.85-35.58L86.85-35.58L86.85-35.58Q93.89-43.52 106.37-43.52L106.37-43.52L106.37-43.52Q115.01-43.52 118.08-39.04L118.08-39.04L118.08-39.04Q119.04-37.63 119.04-35.94L119.04-35.94L119.04-35.94Q119.04-34.24 118.30-32.80L118.30-32.80L118.30-32.80Q117.57-31.36 116.42-30.21L116.42-30.21L116.42-30.21Q113.66-27.65 110.27-27.65L110.27-27.65L110.27-27.65Q108.93-27.65 107.65-28.10L107.65-28.10L107.65-28.10Q107.90-30.02 107.90-32.26L107.90-32.26L107.90-32.26Q107.90-34.50 107.74-35.52L107.74-35.52L107.74-35.52Q107.58-36.54 107.20-37.38L107.20-37.38L107.20-37.38Q106.37-39.10 104.54-39.10L104.54-39.10L104.54-39.10Q102.72-39.10 100.70-37.15L100.70-37.15L100.70-37.15Q98.69-35.20 97.09-32L97.09-32L97.09-32Q93.57-24.83 93.57-16.19L93.57-16.19L93.57-16.19Q93.57-12.22 95.10-9.41L95.10-9.41L95.10-9.41Q96.77-6.34 99.71-6.34L99.71-6.34L99.71-6.34Q100.74-6.34 101.66-6.85L101.66-6.85L101.66-6.85Q102.59-7.36 102.98-7.74L102.98-7.74L105.02-20.61ZM134.34 0L120.38 0L128.51-42.24L142.59-42.24L134.34 0ZM168.96-29.57L168.96-29.57L168.96-29.57Q169.92-31.49 169.92-33.28L169.92-33.28L169.92-33.28Q169.92-35.07 169.73-36.06L169.73-36.06L169.73-36.06Q169.54-37.06 169.09-37.82L169.09-37.82L169.09-37.82Q168.13-39.49 166.21-39.49L166.21-39.49L166.21-39.49Q163.84-39.49 161.92-37.76L161.92-37.76L161.92-37.76Q159.87-35.97 159.87-33.15L159.87-33.15L159.87-33.15Q159.87-31.36 161.12-29.98L161.12-29.98L161.12-29.98Q162.37-28.61 164.29-27.33L164.29-27.33L164.29-27.33Q166.21-26.05 168.38-24.77L168.38-24.77L168.38-24.77Q170.56-23.49 172.48-21.95L172.48-21.95L172.48-21.95Q176.90-18.43 176.90-13.70L176.90-13.70L176.90-13.70Q176.90-10.50 175.20-7.78L175.20-7.78L175.20-7.78Q173.50-5.06 170.69-3.07L170.69-3.07L170.69-3.07Q164.54 1.28 156.42 1.28L156.42 1.28L156.42 1.28Q149.82 1.28 146.43-0.86L146.43-0.86L146.43-0.86Q143.04-3.01 143.04-6.27L143.04-6.27L143.04-6.27Q143.04-12.10 147.58-13.57L147.58-13.57L147.58-13.57Q148.86-14.02 150.82-14.02L150.82-14.02L150.82-14.02Q152.77-14.02 155.01-13.18L155.01-13.18L155.01-13.18Q153.98-10.56 153.98-8.19L153.98-8.19L153.98-8.19Q153.98-3.07 157.63-3.07L157.63-3.07L157.63-3.07Q160-3.07 161.95-4.80L161.95-4.80L161.95-4.80Q163.90-6.53 163.90-8.48L163.90-8.48L163.90-8.48Q163.90-10.43 162.66-11.84L162.66-11.84L162.66-11.84Q161.41-13.25 159.55-14.37L159.55-14.37L159.55-14.37Q157.70-15.49 155.55-16.58L155.55-16.58L155.55-16.58Q153.41-17.66 151.55-19.20L151.55-19.20L151.55-19.20Q147.20-22.72 147.20-28.35L147.20-28.35L147.20-28.35Q147.20-32 148.99-34.85L148.99-34.85L148.99-34.85Q150.78-37.70 153.66-39.62L153.66-39.62L153.66-39.62Q159.42-43.52 166.50-43.52L166.50-43.52L166.50-43.52Q173.57-43.52 176.99-41.41L176.99-41.41L176.99-41.41Q180.42-39.30 180.42-35.71L180.42-35.71L180.42-35.71Q180.42-32.58 177.98-30.59L177.98-30.59L177.98-30.59Q175.87-28.93 173.31-28.93L173.31-28.93L173.31-28.93Q170.75-28.93 168.96-29.57ZM186.88-31.17L186.88-31.17L186.88-31.17Q184.70-32.83 184.70-36.38L184.70-36.38L184.70-36.38Q184.70-39.94 187.04-41.79L187.04-41.79L187.04-41.79Q189.38-43.65 193.41-43.65L193.41-43.65L193.41-43.65Q195.97-43.65 202.05-42.75L202.05-42.75L206.40-42.11L206.40-42.11Q208.58-41.86 210.85-41.86L210.85-41.86L210.85-41.86Q213.12-41.86 214.66-42.82L214.66-42.82L214.66-42.82Q216.96-40.77 216.96-37.82L216.96-37.82L216.96-37.82Q216.96-34.88 214.34-32.77L214.34-32.77L214.34-32.77Q211.65-30.53 208.19-30.53L208.19-30.53L208.19-30.53Q206.53-30.53 203.84-30.98L203.84-30.98L203.84-30.98Q200.70-21.12 200.70-14.27L200.70-14.27L200.70-14.27Q200.70-7.42 204.16-3.84L204.16-3.84L204.16-3.84Q202.56-0.96 200.19 0.16L200.19 0.16L200.19 0.16Q197.82 1.28 194.27 1.28L194.27 1.28L194.27 1.28Q190.72 1.28 188.51-0.67L188.51-0.67L188.51-0.67Q186.30-2.62 186.30-6.66L186.30-6.66L186.30-6.66Q186.30-11.33 188.86-19.01L188.86-19.01L188.86-19.01Q191.42-26.62 195.26-32.45L195.26-32.45L195.26-32.45Q193.41-32.64 191.49-32.64L191.49-32.64L191.49-32.64Q187.52-32.64 186.88-31.17ZM242.24-9.86L242.24-9.86L242.24-9.86Q243.46-8.32 243.46-5.82L243.46-5.82L243.46-5.82Q243.46-2.37 240.90-0.54L240.90-0.54L240.90-0.54Q238.34 1.28 234.30 1.28L234.30 1.28L234.30 1.28Q232 1.28 228.48 0.77L228.48 0.77L228.48 0.77Q221.57-0.32 219.46-0.32L219.46-0.32L219.46-0.32Q217.34-0.32 216.51-0.22L216.51-0.22L216.51-0.22Q215.68-0.13 214.34 0L214.34 0L222.21-42.24L249.79-42.24L249.79-42.24Q249.79-38.34 247.90-36.29L247.90-36.29L247.90-36.29Q246.02-34.24 242.30-34.24L242.30-34.24L242.30-34.24Q238.59-34.24 234.82-35.97L234.82-35.97L232.83-24.77L244.22-24.77L244.22-24.77Q244.22-21.38 242.56-19.49L242.56-19.49L242.56-19.49Q240.90-17.60 238.11-17.60L238.11-17.60L238.11-17.60Q235.33-17.60 233.60-18.24L233.60-18.24L233.60-18.24Q231.87-18.88 231.68-19.07L231.68-19.07L229.38-6.98L229.38-6.98Q230.91-6.78 233.79-6.78L233.79-6.78L233.79-6.78Q238.72-6.78 242.24-9.86ZM262.46 0L248.77 0L256.58-42.05L256.58-42.05Q262.91-42.75 272.16-42.75L272.16-42.75L272.16-42.75Q281.41-42.75 285.70-40.06L285.70-40.06L285.70-40.06Q289.98-37.38 289.98-31.97L289.98-31.97L289.98-31.97Q289.98-26.56 287.20-23.17L287.20-23.17L287.20-23.17Q284.42-19.78 279.62-18.69L279.62-18.69L279.62-18.69Q280.70-13.38 283.20-9.09L283.20-9.09L283.20-9.09Q285.50-5.06 288.19-3.78L288.19-3.78L288.19-3.78Q287.23-1.09 285.28 0.10L285.28 0.10L285.28 0.10Q283.33 1.28 280.54 1.28L280.54 1.28L280.54 1.28Q277.76 1.28 275.58-0.35L275.58-0.35L275.58-0.35Q273.41-1.98 271.68-4.99L271.68-4.99L271.68-4.99Q268.03-11.52 267.65-21.82L267.65-21.82L268.10-21.82L268.10-21.82Q272.83-21.95 275.20-24.42L275.20-24.42L275.20-24.42Q277.57-26.88 277.57-32.06L277.57-32.06L277.57-32.06Q277.57-38.53 272.13-38.78L272.13-38.78L270.72-38.78L270.72-38.78Q270.14-38.78 269.82-38.72L269.82-38.72L262.46 0Z" fill="#ccc"/></g></g><style>text {
  font-size: 64px;
  font-family: Arial Black;
  dominant-baseline: central;
  text-anchor: middle;
}</style></svg>