<svg xmlns="http://www.w3.org/2000/svg" style="background: rgba(0, 0, 0, 0);" preserveAspectRatio="xMidYMid" viewBox="157.08 53.85 185.85 44.86"><defs><filter id="editing-extrusion" x="-100%" y="-100%" width="300%" height="300%"><feFlood result="color1" flood-color="#444"/><feConvolveMatrix order="8,8" divisor="1" kernelMatrix="1 0 0 0 0 0 0 0 0 1 0 0 0 0 0 0 0 0 1 0 0 0 0 0 0 0 0 1 0 0 0 0 0 0 0 0 1 0 0 0 0 0 0 0 0 1 0 0 0 0 0 0 0 0 1 0 0 0 0 0 0 0 0 1" in="SourceAlpha" result="extrude"/><feComposite in="color1" in2="extrude" result="comp-extrude" operator="in"/><feOffset dx="4" dy="4" in="comp-extrude" result="offset-extrude"/><feMerge><feMergeNode in="offset-extrude"/><feMergeNode in="SourceGraphic"/></feMerge></filter></defs><g filter="url(#editing-extrusion)"><g transform="translate(156.49501222372055, 97.43000030517578)"><path d="M27.84-9.86L27.84-9.86L27.84-9.86Q29.06-8.32 29.06-5.34L29.06-5.34L29.06-5.34Q29.06-2.37 26.78-0.54L26.78-0.54L26.78-0.54Q24.51 1.28 20.54 1.28L20.54 1.28L20.54 1.28Q18.24 1.28 14.66 0.77L14.66 0.77L14.66 0.77Q7.62-0.32 5.60-0.32L5.60-0.32L5.60-0.32Q3.58-0.32 2.75-0.22L2.75-0.22L2.75-0.22Q1.92-0.13 0.58 0L0.58 0L8.32-42.24L22.34-42.24L15.94-7.04L15.94-7.04Q16.77-6.91 17.54-6.91L17.54-6.91L19.14-6.91L19.14-6.91Q24.51-6.91 27.84-9.86ZM33.66-15.62L33.66-15.62L33.66-15.62Q33.66-27.71 39.94-35.33L39.94-35.33L39.94-35.33Q46.59-43.58 58.18-43.58L58.18-43.58L58.18-43.58Q66.56-43.58 70.78-39.52L70.78-39.52L70.78-39.52Q75.01-35.46 75.01-26.88L75.01-26.88L75.01-26.88Q75.01-13.82 68.35-6.21L68.35-6.21L68.35-6.21Q61.76 1.28 50.69 1.28L50.69 1.28L50.69 1.28Q42.05 1.28 37.86-3.04L37.86-3.04L37.86-3.04Q33.66-7.36 33.66-15.62ZM50.50-28.86L50.50-28.86L50.50-28.86Q47.62-17.34 47.62-8.26L47.62-8.26L47.62-8.26Q47.62-6.08 48.35-4.67L48.35-4.67L48.35-4.67Q49.09-3.26 51.04-3.26L51.04-3.26L51.04-3.26Q52.99-3.26 54.21-4.19L54.21-4.19L54.21-4.19Q55.42-5.12 56.38-7.23L56.38-7.23L56.38-7.23Q57.92-10.69 59.36-18.02L59.36-18.02L59.36-18.02Q60.80-25.34 60.93-28.38L60.93-28.38L60.93-28.38Q61.06-31.42 61.06-33.73L61.06-33.73L61.06-33.73Q61.06-36.03 60.35-37.50L60.35-37.50L60.35-37.50Q59.65-38.98 57.76-38.98L57.76-38.98L57.76-38.98Q55.87-38.98 54.59-37.82L54.59-37.82L54.59-37.82Q52.22-35.65 50.50-28.86ZM104.06-20.61L116.99-21.76L116.99-21.76Q112.38-11.65 112.38 0.06L112.38 0.06L112.38 0.06Q110.66 1.28 108.13 1.28L108.13 1.28L108.13 1.28Q105.60 1.28 104 0.10L104 0.10L104 0.10Q102.40-1.09 102.08-2.30L102.08-2.30L102.08-2.30Q100.48-0.64 97.89 0.32L97.89 0.32L97.89 0.32Q95.30 1.28 92.54 1.28L92.54 1.28L92.54 1.28Q89.79 1.28 87.39 0.38L87.39 0.38L87.39 0.38Q84.99-0.51 83.14-2.50L83.14-2.50L83.14-2.50Q79.04-6.85 79.04-15.10L79.04-15.10L79.04-15.10Q79.04-27.90 85.89-35.58L85.89-35.58L85.89-35.58Q92.93-43.52 105.41-43.52L105.41-43.52L105.41-43.52Q114.05-43.52 117.12-39.04L117.12-39.04L117.12-39.04Q118.08-37.63 118.08-35.94L118.08-35.94L118.08-35.94Q118.08-34.24 117.34-32.80L117.34-32.80L117.34-32.80Q116.61-31.36 115.46-30.21L115.46-30.21L115.46-30.21Q112.70-27.65 109.31-27.65L109.31-27.65L109.31-27.65Q107.97-27.65 106.69-28.10L106.69-28.10L106.69-28.10Q106.94-30.02 106.94-32.26L106.94-32.26L106.94-32.26Q106.94-34.50 106.78-35.52L106.78-35.52L106.78-35.52Q106.62-36.54 106.24-37.38L106.24-37.38L106.24-37.38Q105.41-39.10 103.58-39.10L103.58-39.10L103.58-39.10Q101.76-39.10 99.74-37.15L99.74-37.15L99.74-37.15Q97.73-35.20 96.13-32L96.13-32L96.13-32Q92.61-24.83 92.61-16.19L92.61-16.19L92.61-16.19Q92.61-12.22 94.14-9.41L94.14-9.41L94.14-9.41Q95.81-6.34 98.75-6.34L98.75-6.34L98.75-6.34Q99.78-6.34 100.70-6.85L100.70-6.85L100.70-6.85Q101.63-7.36 102.02-7.74L102.02-7.74L104.06-20.61ZM133.38 0L119.42 0L127.55-42.24L141.63-42.24L133.38 0ZM149.63 0L142.59 0L150.27-42.24L164.03-42.24L174.02-13.18L179.33-42.24L186.43-42.18L178.62 0L163.97 0L154.75-27.97L149.63 0Z" fill="#ccc"/></g></g><style>text {
  font-size: 64px;
  font-family: Arial Black;
  dominant-baseline: central;
  text-anchor: middle;
}</style></svg>