<svg xmlns="http://www.w3.org/2000/svg" style="background: rgba(0, 0, 0, 0);" preserveAspectRatio="xMidYMid" viewBox="-349.33 58.84 1198.66 60.6"><defs><filter id="editing-extrusion" x="-100%" y="-100%" width="300%" height="300%"><feFlood result="color1" flood-color="#444"/><feConvolveMatrix order="8,8" divisor="1" kernelMatrix="1 0 0 0 0 0 0 0 0 1 0 0 0 0 0 0 0 0 1 0 0 0 0 0 0 0 0 1 0 0 0 0 0 0 0 0 1 0 0 0 0 0 0 0 0 1 0 0 0 0 0 0 0 0 1 0 0 0 0 0 0 0 0 1" in="SourceAlpha" result="extrude"/><feComposite in="color1" in2="extrude" result="comp-extrude" operator="in"/><feOffset dx="4" dy="4" in="comp-extrude" result="offset-extrude"/><feMerge><feMergeNode in="offset-extrude"/><feMergeNode in="SourceGraphic"/></feMerge></filter></defs><g filter="url(#editing-extrusion)"><g transform="translate(-349.9700476527214, 105.29999923706055)"><path d="M38.08 0L29.50-26.30L29.50-26.30Q28.54-28.93 27.97-31.42L27.97-31.42L27.97-31.42Q27.65-30.21 27.36-28.99L27.36-28.99L27.36-28.99Q27.07-27.78 26.62-26.30L26.62-26.30L18.30 0L12.67 0L0.64-43.33L8.26-43.33L13.89-21.63L13.89-21.63Q15.36-16 16-12.54L16-12.54L16-12.54Q16.45-14.34 17.06-16.51L17.06-16.51L17.06-16.51Q17.66-18.69 18.56-21.50L18.56-21.50L25.34-43.33L31.04-43.33L37.82-21.50L37.82-21.50Q38.72-18.62 39.36-16.26L39.36-16.26L39.36-16.26Q40-13.89 40.38-12.10L40.38-12.10L40.38-12.10Q40.64-13.89 41.12-16.26L41.12-16.26L41.12-16.26Q41.60-18.62 42.37-21.50L42.37-21.50L48-43.33L55.74-43.33L43.71 0L38.08 0ZM55.94-15.17L55.94-15.17Q55.94-19.46 57.12-22.72L57.12-22.72L57.12-22.72Q58.30-25.98 60.38-28.19L60.38-28.19L60.38-28.19Q62.46-30.40 65.28-31.52L65.28-31.52L65.28-31.52Q68.10-32.64 71.36-32.64L71.36-32.64L71.36-32.64Q74.24-32.64 76.26-31.94L76.26-31.94L76.26-31.94Q78.27-31.23 79.55-30.02L79.55-30.02L79.55-30.02Q80.83-28.80 81.44-27.14L81.44-27.14L81.44-27.14Q82.05-25.47 82.05-23.55L82.05-23.55L82.05-23.55Q82.05-21.25 80.77-19.17L80.77-19.17L80.77-19.17Q79.49-17.09 77.09-15.52L77.09-15.52L77.09-15.52Q74.69-13.95 71.30-13.02L71.30-13.02L71.30-13.02Q67.90-12.10 63.68-12.03L63.68-12.03L63.68-12.03Q63.87-10.56 64.29-9.25L64.29-9.25L64.29-9.25Q64.70-7.94 65.50-6.94L65.50-6.94L65.50-6.94Q66.30-5.95 67.58-5.38L67.58-5.38L67.58-5.38Q68.86-4.80 70.78-4.80L70.78-4.80L70.78-4.80Q72.19-4.80 73.79-5.12L73.79-5.12L73.79-5.12Q75.39-5.44 76.74-5.89L76.74-5.89L76.74-5.89Q78.34-6.40 79.87-7.04L79.87-7.04L81.79-2.50L81.79-2.50Q80.13-1.66 78.21-1.02L78.21-1.02L78.21-1.02Q76.54-0.45 74.37 0L74.37 0L74.37 0Q72.19 0.45 69.76 0.45L69.76 0.45L69.76 0.45Q66.05 0.45 63.42-0.67L63.42-0.67L63.42-0.67Q60.80-1.79 59.14-3.84L59.14-3.84L59.14-3.84Q57.47-5.89 56.70-8.77L56.70-8.77L56.70-8.77Q55.94-11.65 55.94-15.17L55.94-15.17ZM70.78-27.65L70.78-27.65Q68.67-27.65 67.30-26.66L67.30-26.66L67.30-26.66Q65.92-25.66 65.09-24.10L65.09-24.10L65.09-24.10Q64.26-22.53 63.90-20.58L63.90-20.58L63.90-20.58Q63.55-18.62 63.49-16.64L63.49-16.64L63.49-16.64Q66.56-16.77 68.70-17.44L68.70-17.44L68.70-17.44Q70.85-18.11 72.19-19.10L72.19-19.10L72.19-19.10Q73.54-20.10 74.14-21.25L74.14-21.25L74.14-21.25Q74.75-22.40 74.75-23.55L74.75-23.55L74.75-23.55Q74.75-25.41 73.66-26.53L73.66-26.53L73.66-26.53Q72.58-27.65 70.78-27.65L70.78-27.65ZM94.91 0.26L94.91 0.26Q91.26 0.26 89.54-1.76L89.54-1.76L89.54-1.76Q87.81-3.78 87.81-6.91L87.81-6.91L87.81-45.12L95.10-46.46L95.10-7.62L95.10-7.62Q95.10-6.14 95.68-5.57L95.68-5.57L95.68-5.57Q96.26-4.99 97.34-4.99L97.34-4.99L97.34-4.99Q97.98-4.99 98.59-5.06L98.59-5.06L98.59-5.06Q99.20-5.12 99.71-5.25L99.71-5.25L99.71-5.25Q100.29-5.38 100.74-5.50L100.74-5.50L101.63-0.90L101.63-0.90Q100.80-0.58 99.78-0.32L99.78-0.32L99.78-0.32Q98.88-0.06 97.66 0.10L97.66 0.10L97.66 0.10Q96.45 0.26 94.91 0.26L94.91 0.26ZM127.17-28.29L123.07-24.38L123.07-24.38Q122.11-25.47 121.12-26.24L121.12-26.24L121.12-26.24Q120.13-27.01 118.46-27.01L118.46-27.01L118.46-27.01Q117.50-27.01 116.32-26.72L116.32-26.72L116.32-26.72Q115.14-26.43 114.11-25.31L114.11-25.31L114.11-25.31Q113.09-24.19 112.42-22.02L112.42-22.02L112.42-22.02Q111.74-19.84 111.74-16.13L111.74-16.13L111.74-16.13Q111.74-12.35 112.42-10.14L112.42-10.14L112.42-10.14Q113.09-7.94 114.14-6.72L114.14-6.72L114.14-6.72Q115.20-5.50 116.42-5.15L116.42-5.15L116.42-5.15Q117.63-4.80 118.78-4.80L118.78-4.80L118.78-4.80Q119.68-4.80 120.64-4.96L120.64-4.96L120.64-4.96Q121.60-5.12 122.50-5.34L122.50-5.34L122.50-5.34Q123.39-5.57 124.06-5.76L124.06-5.76L124.06-5.76Q124.74-5.95 125.06-6.08L125.06-6.08L126.85-1.47L126.85-1.47Q126.66-1.41 125.98-1.09L125.98-1.09L125.98-1.09Q125.31-0.77 124.16-0.45L124.16-0.45L124.16-0.45Q123.01-0.13 121.41 0.16L121.41 0.16L121.41 0.16Q119.81 0.45 117.82 0.45L117.82 0.45L117.82 0.45Q114.11 0.45 111.49-0.67L111.49-0.67L111.49-0.67Q108.86-1.79 107.17-3.84L107.17-3.84L107.17-3.84Q105.47-5.89 104.67-8.77L104.67-8.77L104.67-8.77Q103.87-11.65 103.87-15.17L103.87-15.17L103.87-15.17Q103.87-19.39 104.99-22.66L104.99-22.66L104.99-22.66Q106.11-25.92 108.10-28.13L108.10-28.13L108.10-28.13Q110.08-30.34 112.77-31.49L112.77-31.49L112.77-31.49Q115.46-32.64 118.53-32.64L118.53-32.64L118.53-32.64Q121.54-32.64 123.62-31.49L123.62-31.49L123.62-31.49Q125.70-30.34 127.17-28.29L127.17-28.29ZM144.06-32.64L144.06-32.64Q151.42-32.64 154.75-28.29L154.75-28.29L154.75-28.29Q158.08-23.94 158.08-16.32L158.08-16.32L158.08-16.32Q158.08-12.74 157.18-9.63L157.18-9.63L157.18-9.63Q156.29-6.53 154.46-4.26L154.46-4.26L154.46-4.26Q152.64-1.98 149.89-0.67L149.89-0.67L149.89-0.67Q147.14 0.64 143.49 0.64L143.49 0.64L143.49 0.64Q139.84 0.64 137.18-0.48L137.18-0.48L137.18-0.48Q134.53-1.60 132.80-3.71L132.80-3.71L132.80-3.71Q131.07-5.82 130.27-8.83L130.27-8.83L130.27-8.83Q129.47-11.84 129.47-15.62L129.47-15.62L129.47-15.62Q129.47-19.26 130.37-22.37L130.37-22.37L130.37-22.37Q131.26-25.47 133.09-27.74L133.09-27.74L133.09-27.74Q134.91-30.02 137.66-31.33L137.66-31.33L137.66-31.33Q140.42-32.64 144.06-32.64L144.06-32.64ZM143.42-27.26L143.42-27.26Q141.57-27.26 140.38-26.43L140.38-26.43L140.38-26.43Q139.20-25.60 138.53-24.10L138.53-24.10L138.53-24.10Q137.86-22.59 137.60-20.58L137.60-20.58L137.60-20.58Q137.34-18.56 137.34-16.26L137.34-16.26L137.34-16.26Q137.34-13.89 137.63-11.78L137.63-11.78L137.63-11.78Q137.92-9.66 138.69-8.10L138.69-8.10L138.69-8.10Q139.46-6.53 140.77-5.63L140.77-5.63L140.77-5.63Q142.08-4.74 144.13-4.74L144.13-4.74L144.13-4.74Q145.98-4.74 147.17-5.57L147.17-5.57L147.17-5.57Q148.35-6.40 149.02-7.90L149.02-7.90L149.02-7.90Q149.70-9.41 149.95-11.39L149.95-11.39L149.95-11.39Q150.21-13.38 150.21-15.68L150.21-15.68L150.21-15.68Q150.21-18.05 149.92-20.16L149.92-20.16L149.92-20.16Q149.63-22.27 148.86-23.87L148.86-23.87L148.86-23.87Q148.10-25.47 146.78-26.37L146.78-26.37L146.78-26.37Q145.47-27.26 143.42-27.26L143.42-27.26ZM208.26 0L201.02 0L201.02-20.86L201.02-20.86Q201.02-23.55 200.19-25.12L200.19-25.12L200.19-25.12Q199.36-26.69 197.31-26.69L197.31-26.69L197.31-26.69Q196.10-26.69 194.85-26.02L194.85-26.02L194.85-26.02Q193.60-25.34 192.58-24.06L192.58-24.06L192.58-24.06Q191.55-22.78 190.91-20.99L190.91-20.99L190.91-20.99Q190.27-19.20 190.27-17.02L190.27-17.02L190.27 0L183.04 0L183.04-20.86L183.04-20.86Q183.04-23.55 182.21-25.12L182.21-25.12L182.21-25.12Q181.38-26.69 179.33-26.69L179.33-26.69L179.33-26.69Q178.05-26.69 176.80-25.95L176.80-25.95L176.80-25.95Q175.55-25.22 174.56-23.81L174.56-23.81L174.56-23.81Q173.57-22.40 172.96-20.38L172.96-20.38L172.96-20.38Q172.35-18.37 172.35-15.87L172.35-15.87L172.35 0L165.06 0L165.06-16.13L165.06-16.13Q165.06-19.97 164.54-22.56L164.54-22.56L164.54-22.56Q164.03-25.15 163.46-26.75L163.46-26.75L163.46-26.75Q162.75-28.61 161.92-29.76L161.92-29.76L167.68-32.06L167.68-32.06Q168.32-31.36 168.96-30.34L168.96-30.34L168.96-30.34Q169.47-29.44 169.98-28.13L169.98-28.13L169.98-28.13Q170.50-26.82 170.82-25.15L170.82-25.15L170.82-25.15Q172.42-28.99 175.33-30.69L175.33-30.69L175.33-30.69Q178.24-32.38 181.50-32.38L181.50-32.38L181.50-32.38Q184.77-32.38 186.59-30.72L186.59-30.72L186.59-30.72Q188.42-29.06 189.31-26.43L189.31-26.43L189.31-26.43Q191.04-29.63 193.76-31.01L193.76-31.01L193.76-31.01Q196.48-32.38 199.49-32.38L199.49-32.38L199.49-32.38Q201.98-32.38 203.68-31.58L203.68-31.58L203.68-31.58Q205.38-30.78 206.37-29.34L206.37-29.34L206.37-29.34Q207.36-27.90 207.81-25.89L207.81-25.89L207.81-25.89Q208.26-23.87 208.26-21.38L208.26-21.38L208.26 0ZM214.34-15.17L214.34-15.17Q214.34-19.46 215.52-22.72L215.52-22.72L215.52-22.72Q216.70-25.98 218.78-28.19L218.78-28.19L218.78-28.19Q220.86-30.40 223.68-31.52L223.68-31.52L223.68-31.52Q226.50-32.64 229.76-32.64L229.76-32.64L229.76-32.64Q232.64-32.64 234.66-31.94L234.66-31.94L234.66-31.94Q236.67-31.23 237.95-30.02L237.95-30.02L237.95-30.02Q239.23-28.80 239.84-27.14L239.84-27.14L239.84-27.14Q240.45-25.47 240.45-23.55L240.45-23.55L240.45-23.55Q240.45-21.25 239.17-19.17L239.17-19.17L239.17-19.17Q237.89-17.09 235.49-15.52L235.49-15.52L235.49-15.52Q233.09-13.95 229.70-13.02L229.70-13.02L229.70-13.02Q226.30-12.10 222.08-12.03L222.08-12.03L222.08-12.03Q222.27-10.56 222.69-9.25L222.69-9.25L222.69-9.25Q223.10-7.94 223.90-6.94L223.90-6.94L223.90-6.94Q224.70-5.95 225.98-5.38L225.98-5.38L225.98-5.38Q227.26-4.80 229.18-4.80L229.18-4.80L229.18-4.80Q230.59-4.80 232.19-5.12L232.19-5.12L232.19-5.12Q233.79-5.44 235.14-5.89L235.14-5.89L235.14-5.89Q236.74-6.40 238.27-7.04L238.27-7.04L240.19-2.50L240.19-2.50Q238.53-1.66 236.61-1.02L236.61-1.02L236.61-1.02Q234.94-0.45 232.77 0L232.77 0L232.77 0Q230.59 0.45 228.16 0.45L228.16 0.45L228.16 0.45Q224.45 0.45 221.82-0.67L221.82-0.67L221.82-0.67Q219.20-1.79 217.54-3.84L217.54-3.84L217.54-3.84Q215.87-5.89 215.10-8.77L215.10-8.77L215.10-8.77Q214.34-11.65 214.34-15.17L214.34-15.17ZM229.18-27.65L229.18-27.65Q227.07-27.65 225.70-26.66L225.70-26.66L225.70-26.66Q224.32-25.66 223.49-24.10L223.49-24.10L223.49-24.10Q222.66-22.53 222.30-20.58L222.30-20.58L222.30-20.58Q221.95-18.62 221.89-16.64L221.89-16.64L221.89-16.64Q224.96-16.77 227.10-17.44L227.10-17.44L227.10-17.44Q229.25-18.11 230.59-19.10L230.59-19.10L230.59-19.10Q231.94-20.10 232.54-21.25L232.54-21.25L232.54-21.25Q233.15-22.40 233.15-23.55L233.15-23.55L233.15-23.55Q233.15-25.41 232.06-26.53L232.06-26.53L232.06-26.53Q230.98-27.65 229.18-27.65L229.18-27.65ZM259.33-26.69L259.33-31.87L265.09-31.87L266.37-39.36L272.38-40.70L272.38-31.87L280.26-31.87L279.36-26.69L272.38-26.69L272.38-7.74L272.38-7.74Q272.38-6.08 273.28-5.60L273.28-5.60L273.28-5.60Q274.18-5.12 275.26-5.12L275.26-5.12L275.26-5.12Q276.16-5.12 277.06-5.25L277.06-5.25L277.06-5.25Q277.95-5.38 278.66-5.57L278.66-5.57L278.66-5.57Q279.49-5.76 280.26-6.02L280.26-6.02L281.47-1.22L280.90-1.02L280.90-1.02Q280.32-0.77 279.20-0.48L279.20-0.48L279.20-0.48Q278.08-0.19 276.58 0.03L276.58 0.03L276.58 0.03Q275.07 0.26 273.28 0.26L273.28 0.26L273.28 0.26Q271.49 0.26 269.98-0.13L269.98-0.13L269.98-0.13Q268.48-0.51 267.39-1.38L267.39-1.38L267.39-1.38Q266.30-2.24 265.70-3.58L265.70-3.58L265.70-3.58Q265.09-4.93 265.09-6.91L265.09-6.91L265.09-26.69L259.33-26.69ZM297.66-32.64L297.66-32.64Q305.02-32.64 308.35-28.29L308.35-28.29L308.35-28.29Q311.68-23.94 311.68-16.32L311.68-16.32L311.68-16.32Q311.68-12.74 310.78-9.63L310.78-9.63L310.78-9.63Q309.89-6.53 308.06-4.26L308.06-4.26L308.06-4.26Q306.24-1.98 303.49-0.67L303.49-0.67L303.49-0.67Q300.74 0.64 297.09 0.64L297.09 0.64L297.09 0.64Q293.44 0.64 290.78-0.48L290.78-0.48L290.78-0.48Q288.13-1.60 286.40-3.71L286.40-3.71L286.40-3.71Q284.67-5.82 283.87-8.83L283.87-8.83L283.87-8.83Q283.07-11.84 283.07-15.62L283.07-15.62L283.07-15.62Q283.07-19.26 283.97-22.37L283.97-22.37L283.97-22.37Q284.86-25.47 286.69-27.74L286.69-27.74L286.69-27.74Q288.51-30.02 291.26-31.33L291.26-31.33L291.26-31.33Q294.02-32.64 297.66-32.64L297.66-32.64ZM297.02-27.26L297.02-27.26Q295.17-27.26 293.98-26.43L293.98-26.43L293.98-26.43Q292.80-25.60 292.13-24.10L292.13-24.10L292.13-24.10Q291.46-22.59 291.20-20.58L291.20-20.58L291.20-20.58Q290.94-18.56 290.94-16.26L290.94-16.26L290.94-16.26Q290.94-13.89 291.23-11.78L291.23-11.78L291.23-11.78Q291.52-9.66 292.29-8.10L292.29-8.10L292.29-8.10Q293.06-6.53 294.37-5.63L294.37-5.63L294.37-5.63Q295.68-4.74 297.73-4.74L297.73-4.74L297.73-4.74Q299.58-4.74 300.77-5.57L300.77-5.57L300.77-5.57Q301.95-6.40 302.62-7.90L302.62-7.90L302.62-7.90Q303.30-9.41 303.55-11.39L303.55-11.39L303.55-11.39Q303.81-13.38 303.81-15.68L303.81-15.68L303.81-15.68Q303.81-18.05 303.52-20.16L303.52-20.16L303.52-20.16Q303.23-22.27 302.46-23.87L302.46-23.87L302.46-23.87Q301.70-25.47 300.38-26.37L300.38-26.37L300.38-26.37Q299.07-27.26 297.02-27.26L297.02-27.26ZM343.68 0L343.68-16.58L330.24-43.33L338.50-43.33L347.58-23.68L356.86-43.33L364.93-43.33L351.30-16.26L351.30 0L343.68 0ZM377.60-32.64L377.60-32.64Q384.96-32.64 388.29-28.29L388.29-28.29L388.29-28.29Q391.62-23.94 391.62-16.32L391.62-16.32L391.62-16.32Q391.62-12.74 390.72-9.63L390.72-9.63L390.72-9.63Q389.82-6.53 388-4.26L388-4.26L388-4.26Q386.18-1.98 383.42-0.67L383.42-0.67L383.42-0.67Q380.67 0.64 377.02 0.64L377.02 0.64L377.02 0.64Q373.38 0.64 370.72-0.48L370.72-0.48L370.72-0.48Q368.06-1.60 366.34-3.71L366.34-3.71L366.34-3.71Q364.61-5.82 363.81-8.83L363.81-8.83L363.81-8.83Q363.01-11.84 363.01-15.62L363.01-15.62L363.01-15.62Q363.01-19.26 363.90-22.37L363.90-22.37L363.90-22.37Q364.80-25.47 366.62-27.74L366.62-27.74L366.62-27.74Q368.45-30.02 371.20-31.33L371.20-31.33L371.20-31.33Q373.95-32.64 377.60-32.64L377.60-32.64ZM376.96-27.26L376.96-27.26Q375.10-27.26 373.92-26.43L373.92-26.43L373.92-26.43Q372.74-25.60 372.06-24.10L372.06-24.10L372.06-24.10Q371.39-22.59 371.14-20.58L371.14-20.58L371.14-20.58Q370.88-18.56 370.88-16.26L370.88-16.26L370.88-16.26Q370.88-13.89 371.17-11.78L371.17-11.78L371.17-11.78Q371.46-9.66 372.22-8.10L372.22-8.10L372.22-8.10Q372.99-6.53 374.30-5.63L374.30-5.63L374.30-5.63Q375.62-4.74 377.66-4.74L377.66-4.74L377.66-4.74Q379.52-4.74 380.70-5.57L380.70-5.57L380.70-5.57Q381.89-6.40 382.56-7.90L382.56-7.90L382.56-7.90Q383.23-9.41 383.49-11.39L383.49-11.39L383.49-11.39Q383.74-13.38 383.74-15.68L383.74-15.68L383.74-15.68Q383.74-18.05 383.46-20.16L383.46-20.16L383.46-20.16Q383.17-22.27 382.40-23.87L382.40-23.87L382.40-23.87Q381.63-25.47 380.32-26.37L380.32-26.37L380.32-26.37Q379.01-27.26 376.96-27.26L376.96-27.26ZM416.96-16.26L416.96-31.87L424.26-31.87L424.26-15.42L424.26-15.42Q424.26-11.58 424.74-8.99L424.74-8.99L424.74-8.99Q425.22-6.40 425.79-4.80L425.79-4.80L425.79-4.80Q426.50-2.88 427.33-1.79L427.33-1.79L421.63 0.51L421.63 0.51Q420.86-0.19 420.22-1.28L420.22-1.28L420.22-1.28Q419.71-2.18 419.17-3.49L419.17-3.49L419.17-3.49Q418.62-4.80 418.43-6.59L418.43-6.59L418.43-6.59Q416.70-2.82 413.57-1.22L413.57-1.22L413.57-1.22Q410.43 0.38 407.04 0.38L407.04 0.38L407.04 0.38Q401.98 0.38 399.84-2.56L399.84-2.56L399.84-2.56Q397.70-5.50 397.70-10.62L397.70-10.62L397.70-31.87L404.99-31.87L404.99-10.75L404.99-10.75Q404.99-8.06 405.95-6.53L405.95-6.53L405.95-6.53Q406.91-4.99 409.22-4.99L409.22-4.99L409.22-4.99Q410.62-4.99 412.00-5.79L412.00-5.79L412.00-5.79Q413.38-6.59 414.50-8.06L414.50-8.06L414.50-8.06Q415.62-9.54 416.29-11.62L416.29-11.62L416.29-11.62Q416.96-13.70 416.96-16.26L416.96-16.26ZM447.42-25.22L447.42-25.22Q446.27-25.22 445.12-24.64L445.12-24.64L445.12-24.64Q443.97-24.06 443.07-23.07L443.07-23.07L443.07-23.07Q442.18-22.08 441.60-20.67L441.60-20.67L441.60-20.67Q441.02-19.26 441.02-17.54L441.02-17.54L441.02 0L433.73 0L433.73-16.13L433.73-16.13Q433.73-19.97 433.22-22.56L433.22-22.56L433.22-22.56Q432.70-25.15 432.13-26.75L432.13-26.75L432.13-26.75Q431.42-28.61 430.59-29.76L430.59-29.76L436.35-32.06L436.35-32.06Q436.93-31.36 437.57-30.34L437.57-30.34L437.57-30.34Q438.08-29.44 438.59-28.22L438.59-28.22L438.59-28.22Q439.10-27.01 439.42-25.34L439.42-25.34L439.42-25.34Q440.70-29.06 443.14-30.69L443.14-30.69L443.14-30.69Q445.57-32.32 448.64-32.32L448.64-32.32L448.64-32.32Q450.11-32.32 451.39-31.97L451.39-31.97L451.39-31.97Q452.67-31.62 452.61-31.62L452.61-31.62L450.56-24.51L450.56-24.51Q450.62-24.51 449.82-24.86L449.82-24.86L449.82-24.86Q449.02-25.22 447.42-25.22L447.42-25.22ZM473.41 0L473.41-43.33L481.02-43.33L481.02-5.76L497.22-5.76L497.22 0L473.41 0ZM512.77-32.64L512.77-32.64Q520.13-32.64 523.46-28.29L523.46-28.29L523.46-28.29Q526.78-23.94 526.78-16.32L526.78-16.32L526.78-16.32Q526.78-12.74 525.89-9.63L525.89-9.63L525.89-9.63Q524.99-6.53 523.17-4.26L523.17-4.26L523.17-4.26Q521.34-1.98 518.59-0.67L518.59-0.67L518.59-0.67Q515.84 0.64 512.19 0.64L512.19 0.64L512.19 0.64Q508.54 0.64 505.89-0.48L505.89-0.48L505.89-0.48Q503.23-1.60 501.50-3.71L501.50-3.71L501.50-3.71Q499.78-5.82 498.98-8.83L498.98-8.83L498.98-8.83Q498.18-11.84 498.18-15.62L498.18-15.62L498.18-15.62Q498.18-19.26 499.07-22.37L499.07-22.37L499.07-22.37Q499.97-25.47 501.79-27.74L501.79-27.74L501.79-27.74Q503.62-30.02 506.37-31.33L506.37-31.33L506.37-31.33Q509.12-32.64 512.77-32.64L512.77-32.64ZM512.13-27.26L512.13-27.26Q510.27-27.26 509.09-26.43L509.09-26.43L509.09-26.43Q507.90-25.60 507.23-24.10L507.23-24.10L507.23-24.10Q506.56-22.59 506.30-20.58L506.30-20.58L506.30-20.58Q506.05-18.56 506.05-16.26L506.05-16.26L506.05-16.26Q506.05-13.89 506.34-11.78L506.34-11.78L506.34-11.78Q506.62-9.66 507.39-8.10L507.39-8.10L507.39-8.10Q508.16-6.53 509.47-5.63L509.47-5.63L509.47-5.63Q510.78-4.74 512.83-4.74L512.83-4.74L512.83-4.74Q514.69-4.74 515.87-5.57L515.87-5.57L515.87-5.57Q517.06-6.40 517.73-7.90L517.73-7.90L517.73-7.90Q518.40-9.41 518.66-11.39L518.66-11.39L518.66-11.39Q518.91-13.38 518.91-15.68L518.91-15.68L518.91-15.68Q518.91-18.05 518.62-20.16L518.62-20.16L518.62-20.16Q518.34-22.27 517.57-23.87L517.57-23.87L517.57-23.87Q516.80-25.47 515.49-26.37L515.49-26.37L515.49-26.37Q514.18-27.26 512.13-27.26L512.13-27.26ZM554.56-28.29L550.46-24.38L550.46-24.38Q549.50-25.47 548.51-26.24L548.51-26.24L548.51-26.24Q547.52-27.01 545.86-27.01L545.86-27.01L545.86-27.01Q544.90-27.01 543.71-26.72L543.71-26.72L543.71-26.72Q542.53-26.43 541.50-25.31L541.50-25.31L541.50-25.31Q540.48-24.19 539.81-22.02L539.81-22.02L539.81-22.02Q539.14-19.84 539.14-16.13L539.14-16.13L539.14-16.13Q539.14-12.35 539.81-10.14L539.81-10.14L539.81-10.14Q540.48-7.94 541.54-6.72L541.54-6.72L541.54-6.72Q542.59-5.50 543.81-5.15L543.81-5.15L543.81-5.15Q545.02-4.80 546.18-4.80L546.18-4.80L546.18-4.80Q547.07-4.80 548.03-4.96L548.03-4.96L548.03-4.96Q548.99-5.12 549.89-5.34L549.89-5.34L549.89-5.34Q550.78-5.57 551.46-5.76L551.46-5.76L551.46-5.76Q552.13-5.95 552.45-6.08L552.45-6.08L554.24-1.47L554.24-1.47Q554.05-1.41 553.38-1.09L553.38-1.09L553.38-1.09Q552.70-0.77 551.55-0.45L551.55-0.45L551.55-0.45Q550.40-0.13 548.80 0.16L548.80 0.16L548.80 0.16Q547.20 0.45 545.22 0.45L545.22 0.45L545.22 0.45Q541.50 0.45 538.88-0.67L538.88-0.67L538.88-0.67Q536.26-1.79 534.56-3.84L534.56-3.84L534.56-3.84Q532.86-5.89 532.06-8.77L532.06-8.77L532.06-8.77Q531.26-11.65 531.26-15.17L531.26-15.17L531.26-15.17Q531.26-19.39 532.38-22.66L532.38-22.66L532.38-22.66Q533.50-25.92 535.49-28.13L535.49-28.13L535.49-28.13Q537.47-30.34 540.16-31.49L540.16-31.49L540.16-31.49Q542.85-32.64 545.92-32.64L545.92-32.64L545.92-32.64Q548.93-32.64 551.01-31.49L551.01-31.49L551.01-31.49Q553.09-30.34 554.56-28.29L554.56-28.29ZM584.51-30.53L584.51-15.42L584.51-15.42Q584.51-11.58 584.99-8.99L584.99-8.99L584.99-8.99Q585.47-6.40 586.05-4.80L586.05-4.80L586.05-4.80Q586.75-2.88 587.58-1.79L587.58-1.79L581.89 0.51L581.89 0.51Q581.06-0.32 580.35-1.47L580.35-1.47L580.35-1.47Q579.78-2.50 579.26-3.94L579.26-3.94L579.26-3.94Q578.75-5.38 578.62-7.36L578.62-7.36L578.62-7.36Q577.54-3.52 575.14-1.57L575.14-1.57L575.14-1.57Q572.74 0.38 568.64 0.38L568.64 0.38L568.64 0.38Q565.63 0.38 563.42-0.74L563.42-0.74L563.42-0.74Q561.22-1.86 559.74-3.94L559.74-3.94L559.74-3.94Q558.27-6.02 557.57-8.96L557.57-8.96L557.57-8.96Q556.86-11.90 556.86-15.49L556.86-15.49L556.86-15.49Q556.86-19.14 557.98-22.24L557.98-22.24L557.98-22.24Q559.10-25.34 561.12-27.58L561.12-27.58L561.12-27.58Q563.14-29.82 565.95-31.10L565.95-31.10L565.95-31.10Q568.77-32.38 572.16-32.38L572.16-32.38L572.16-32.38Q574.08-32.38 576.16-32.10L576.16-32.10L576.16-32.10Q578.24-31.81 580.03-31.49L580.03-31.49L580.03-31.49Q581.82-31.17 583.07-30.88L583.07-30.88L583.07-30.88Q584.32-30.59 584.51-30.53L584.51-30.53ZM569.86-4.74L569.86-4.74Q571.46-4.74 572.80-5.82L572.80-5.82L572.80-5.82Q574.14-6.91 575.14-8.67L575.14-8.67L575.14-8.67Q576.13-10.43 576.67-12.70L576.67-12.70L576.67-12.70Q577.22-14.98 577.22-17.34L577.22-17.34L577.22-26.56L577.22-26.56Q576.58-26.75 575.30-27.01L575.30-27.01L575.30-27.01Q574.02-27.26 572.99-27.26L572.99-27.26L572.99-27.26Q570.56-27.26 568.99-26.43L568.99-26.43L568.99-26.43Q567.42-25.60 566.46-24.13L566.46-24.13L566.46-24.13Q565.50-22.66 565.12-20.61L565.12-20.61L565.12-20.61Q564.74-18.56 564.74-16.13L564.74-16.13L564.74-16.13Q564.74-13.89 564.86-11.84L564.86-11.84L564.86-11.84Q564.99-9.79 565.54-8.19L565.54-8.19L565.54-8.19Q566.08-6.59 567.10-5.66L567.10-5.66L567.10-5.66Q568.13-4.74 569.86-4.74L569.86-4.74ZM599.87 0.26L599.87 0.26Q596.22 0.26 594.50-1.76L594.50-1.76L594.50-1.76Q592.77-3.78 592.77-6.91L592.77-6.91L592.77-45.12L600.06-46.46L600.06-7.62L600.06-7.62Q600.06-6.14 600.64-5.57L600.64-5.57L600.64-5.57Q601.22-4.99 602.30-4.99L602.30-4.99L602.30-4.99Q602.94-4.99 603.55-5.06L603.55-5.06L603.55-5.06Q604.16-5.12 604.67-5.25L604.67-5.25L604.67-5.25Q605.25-5.38 605.70-5.50L605.70-5.50L606.59-0.90L606.59-0.90Q605.76-0.58 604.74-0.32L604.74-0.32L604.74-0.32Q603.84-0.06 602.62 0.10L602.62 0.10L602.62 0.10Q601.41 0.26 599.87 0.26L599.87 0.26ZM628.35 0L628.35-43.33L628.35-43.33Q628.80-43.33 630.40-43.36L630.40-43.36L630.40-43.36Q632.00-43.39 633.98-43.39L633.98-43.39L633.98-43.39Q635.97-43.39 637.95-43.42L637.95-43.42L637.95-43.42Q639.94-43.46 641.22-43.46L641.22-43.46L641.22-43.46Q649.02-43.46 652.74-39.97L652.74-39.97L652.74-39.97Q656.45-36.48 656.45-30.40L656.45-30.40L656.45-30.40Q656.45-27.46 655.42-24.99L655.42-24.99L655.42-24.99Q654.40-22.53 652.38-20.74L652.38-20.74L652.38-20.74Q650.37-18.94 647.39-17.95L647.39-17.95L647.39-17.95Q644.42-16.96 640.45-16.96L640.45-16.96L635.97-16.96L635.97 0L628.35 0ZM635.97-37.95L635.97-22.66L640.90-22.66L640.90-22.66Q644.93-22.66 646.66-24.77L646.66-24.77L646.66-24.77Q648.38-26.88 648.38-30.14L648.38-30.14L648.38-30.14Q648.38-31.62 648.00-33.02L648.00-33.02L648.00-33.02Q647.62-34.43 646.69-35.55L646.69-35.55L646.69-35.55Q645.76-36.67 644.19-37.34L644.19-37.34L644.19-37.34Q642.62-38.02 640.26-38.02L640.26-38.02L640.26-38.02Q638.85-38.02 637.79-38.02L637.79-38.02L637.79-38.02Q636.74-38.02 635.97-37.95L635.97-37.95ZM675.90-25.22L675.90-25.22Q674.75-25.22 673.60-24.64L673.60-24.64L673.60-24.64Q672.45-24.06 671.55-23.07L671.55-23.07L671.55-23.07Q670.66-22.08 670.08-20.67L670.08-20.67L670.08-20.67Q669.50-19.26 669.50-17.54L669.50-17.54L669.50 0L662.21 0L662.21-16.13L662.21-16.13Q662.21-19.97 661.70-22.56L661.70-22.56L661.70-22.56Q661.18-25.15 660.61-26.75L660.61-26.75L660.61-26.75Q659.90-28.61 659.07-29.76L659.07-29.76L664.83-32.06L664.83-32.06Q665.41-31.36 666.05-30.34L666.05-30.34L666.05-30.34Q666.56-29.44 667.07-28.22L667.07-28.22L667.07-28.22Q667.58-27.01 667.90-25.34L667.90-25.34L667.90-25.34Q669.18-29.06 671.62-30.69L671.62-30.69L671.62-30.69Q674.05-32.32 677.12-32.32L677.12-32.32L677.12-32.32Q678.59-32.32 679.87-31.97L679.87-31.97L679.87-31.97Q681.15-31.62 681.09-31.62L681.09-31.62L679.04-24.51L679.04-24.51Q679.10-24.51 678.30-24.86L678.30-24.86L678.30-24.86Q677.50-25.22 675.90-25.22L675.90-25.22ZM696.00-32.64L696.00-32.64Q703.36-32.64 706.69-28.29L706.69-28.29L706.69-28.29Q710.02-23.94 710.02-16.32L710.02-16.32L710.02-16.32Q710.02-12.74 709.12-9.63L709.12-9.63L709.12-9.63Q708.22-6.53 706.40-4.26L706.40-4.26L706.40-4.26Q704.58-1.98 701.82-0.67L701.82-0.67L701.82-0.67Q699.07 0.64 695.42 0.64L695.42 0.64L695.42 0.64Q691.78 0.64 689.12-0.48L689.12-0.48L689.12-0.48Q686.46-1.60 684.74-3.71L684.74-3.71L684.74-3.71Q683.01-5.82 682.21-8.83L682.21-8.83L682.21-8.83Q681.41-11.84 681.41-15.62L681.41-15.62L681.41-15.62Q681.41-19.26 682.30-22.37L682.30-22.37L682.30-22.37Q683.20-25.47 685.02-27.74L685.02-27.74L685.02-27.74Q686.85-30.02 689.60-31.33L689.60-31.33L689.60-31.33Q692.35-32.64 696.00-32.64L696.00-32.64ZM695.36-27.26L695.36-27.26Q693.50-27.26 692.32-26.43L692.32-26.43L692.32-26.43Q691.14-25.60 690.46-24.10L690.46-24.10L690.46-24.10Q689.79-22.59 689.54-20.58L689.54-20.58L689.54-20.58Q689.28-18.56 689.28-16.26L689.28-16.26L689.28-16.26Q689.28-13.89 689.57-11.78L689.57-11.78L689.57-11.78Q689.86-9.66 690.62-8.10L690.62-8.10L690.62-8.10Q691.39-6.53 692.70-5.63L692.70-5.63L692.70-5.63Q694.02-4.74 696.06-4.74L696.06-4.74L696.06-4.74Q697.92-4.74 699.10-5.57L699.10-5.57L699.10-5.57Q700.29-6.40 700.96-7.90L700.96-7.90L700.96-7.90Q701.63-9.41 701.89-11.39L701.89-11.39L701.89-11.39Q702.14-13.38 702.14-15.68L702.14-15.68L702.14-15.68Q702.14-18.05 701.86-20.16L701.86-20.16L701.86-20.16Q701.57-22.27 700.80-23.87L700.80-23.87L700.80-23.87Q700.03-25.47 698.72-26.37L698.72-26.37L698.72-26.37Q697.41-27.26 695.36-27.26L695.36-27.26ZM745.22-1.79L739.52 0.51L739.52 0.51Q739.39 0.45 738.94-0.10L738.94-0.10L738.94-0.10Q738.50-0.64 737.95-1.60L737.95-1.60L737.95-1.60Q737.41-2.56 736.90-4L736.90-4L736.90-4Q736.38-5.44 736.26-7.36L736.26-7.36L736.26-7.36Q735.17-3.52 732.77-1.57L732.77-1.57L732.77-1.57Q730.37 0.38 726.27 0.38L726.27 0.38L726.27 0.38Q723.26 0.38 721.06-0.74L721.06-0.74L721.06-0.74Q718.85-1.86 717.38-3.94L717.38-3.94L717.38-3.94Q715.90-6.02 715.20-8.96L715.20-8.96L715.20-8.96Q714.50-11.90 714.50-15.49L714.50-15.49L714.50-15.49Q714.50-19.14 715.62-22.24L715.62-22.24L715.62-22.24Q716.74-25.34 718.75-27.58L718.75-27.58L718.75-27.58Q720.77-29.82 723.58-31.10L723.58-31.10L723.58-31.10Q726.40-32.38 729.79-32.38L729.79-32.38L729.79-32.38Q730.94-32.38 732.26-32.26L732.26-32.26L732.26-32.26Q733.57-32.13 734.85-31.94L734.85-31.94L734.85-46.40L742.14-45.12L742.14-15.42L742.14-15.42Q742.14-11.58 742.59-9.06L742.59-9.06L742.59-9.06Q743.04-6.53 743.62-4.96L743.62-4.96L743.62-4.96Q744.19-3.39 744.67-2.69L744.67-2.69L744.67-2.69Q745.15-1.98 745.22-1.79L745.22-1.79ZM727.49-4.80L727.49-4.80Q729.09-4.80 730.43-5.89L730.43-5.89L730.43-5.89Q731.78-6.98 732.77-8.74L732.77-8.74L732.77-8.74Q733.76-10.50 734.30-12.74L734.30-12.74L734.30-12.74Q734.85-14.98 734.85-17.34L734.85-17.34L734.85-26.56L734.85-26.56Q734.21-26.75 732.93-27.01L732.93-27.01L732.93-27.01Q731.65-27.26 730.62-27.26L730.62-27.26L730.62-27.26Q728.19-27.26 726.62-26.43L726.62-26.43L726.62-26.43Q725.06-25.60 724.10-24.13L724.10-24.13L724.10-24.13Q723.14-22.66 722.75-20.61L722.75-20.61L722.75-20.61Q722.37-18.56 722.37-16.13L722.37-16.13L722.37-16.13Q722.37-13.89 722.50-11.84L722.50-11.84L722.50-11.84Q722.62-9.79 723.17-8.22L723.17-8.22L723.17-8.22Q723.71-6.66 724.74-5.73L724.74-5.73L724.74-5.73Q725.76-4.80 727.49-4.80L727.49-4.80ZM769.66-16.26L769.66-31.87L776.96-31.87L776.96-15.42L776.96-15.42Q776.96-11.58 777.44-8.99L777.44-8.99L777.44-8.99Q777.92-6.40 778.50-4.80L778.50-4.80L778.50-4.80Q779.20-2.88 780.03-1.79L780.03-1.79L774.34 0.51L774.34 0.51Q773.57-0.19 772.93-1.28L772.93-1.28L772.93-1.28Q772.42-2.18 771.87-3.49L771.87-3.49L771.87-3.49Q771.33-4.80 771.14-6.59L771.14-6.59L771.14-6.59Q769.41-2.82 766.27-1.22L766.27-1.22L766.27-1.22Q763.14 0.38 759.74 0.38L759.74 0.38L759.74 0.38Q754.69 0.38 752.54-2.56L752.54-2.56L752.54-2.56Q750.40-5.50 750.40-10.62L750.40-10.62L750.40-31.87L757.70-31.87L757.70-10.75L757.70-10.75Q757.70-8.06 758.66-6.53L758.66-6.53L758.66-6.53Q759.62-4.99 761.92-4.99L761.92-4.99L761.92-4.99Q763.33-4.99 764.70-5.79L764.70-5.79L764.70-5.79Q766.08-6.59 767.20-8.06L767.20-8.06L767.20-8.06Q768.32-9.54 768.99-11.62L768.99-11.62L768.99-11.62Q769.66-13.70 769.66-16.26L769.66-16.26ZM807.23-28.29L803.14-24.38L803.14-24.38Q802.18-25.47 801.18-26.24L801.18-26.24L801.18-26.24Q800.19-27.01 798.53-27.01L798.53-27.01L798.53-27.01Q797.57-27.01 796.38-26.72L796.38-26.72L796.38-26.72Q795.20-26.43 794.18-25.31L794.18-25.31L794.18-25.31Q793.15-24.19 792.48-22.02L792.48-22.02L792.48-22.02Q791.81-19.84 791.81-16.13L791.81-16.13L791.81-16.13Q791.81-12.35 792.48-10.14L792.48-10.14L792.48-10.14Q793.15-7.94 794.21-6.72L794.21-6.72L794.21-6.72Q795.26-5.50 796.48-5.15L796.48-5.15L796.48-5.15Q797.70-4.80 798.85-4.80L798.85-4.80L798.85-4.80Q799.74-4.80 800.70-4.96L800.70-4.96L800.70-4.96Q801.66-5.12 802.56-5.34L802.56-5.34L802.56-5.34Q803.46-5.57 804.13-5.76L804.13-5.76L804.13-5.76Q804.80-5.95 805.12-6.08L805.12-6.08L806.91-1.47L806.91-1.47Q806.72-1.41 806.05-1.09L806.05-1.09L806.05-1.09Q805.38-0.77 804.22-0.45L804.22-0.45L804.22-0.45Q803.07-0.13 801.47 0.16L801.47 0.16L801.47 0.16Q799.87 0.45 797.89 0.45L797.89 0.45L797.89 0.45Q794.18 0.45 791.55-0.67L791.55-0.67L791.55-0.67Q788.93-1.79 787.23-3.84L787.23-3.84L787.23-3.84Q785.54-5.89 784.74-8.77L784.74-8.77L784.74-8.77Q783.94-11.65 783.94-15.17L783.94-15.17L783.94-15.17Q783.94-19.39 785.06-22.66L785.06-22.66L785.06-22.66Q786.18-25.92 788.16-28.13L788.16-28.13L788.16-28.13Q790.14-30.34 792.83-31.49L792.83-31.49L792.83-31.49Q795.52-32.64 798.59-32.64L798.59-32.64L798.59-32.64Q801.60-32.64 803.68-31.49L803.68-31.49L803.68-31.49Q805.76-30.34 807.23-28.29L807.23-28.29ZM808.58-26.69L808.58-31.87L814.34-31.87L815.62-39.36L821.63-40.70L821.63-31.87L829.50-31.87L828.61-26.69L821.63-26.69L821.63-7.74L821.63-7.74Q821.63-6.08 822.53-5.60L822.53-5.60L822.53-5.60Q823.42-5.12 824.51-5.12L824.51-5.12L824.51-5.12Q825.41-5.12 826.30-5.25L826.30-5.25L826.30-5.25Q827.20-5.38 827.90-5.57L827.90-5.57L827.90-5.57Q828.74-5.76 829.50-6.02L829.50-6.02L830.72-1.22L830.14-1.02L830.14-1.02Q829.57-0.77 828.45-0.48L828.45-0.48L828.45-0.48Q827.33-0.19 825.82 0.03L825.82 0.03L825.82 0.03Q824.32 0.26 822.53 0.26L822.53 0.26L822.53 0.26Q820.74 0.26 819.23-0.13L819.23-0.13L819.23-0.13Q817.73-0.51 816.64-1.38L816.64-1.38L816.64-1.38Q815.55-2.24 814.94-3.58L814.94-3.58L814.94-3.58Q814.34-4.93 814.34-6.91L814.34-6.91L814.34-26.69L808.58-26.69ZM883.33-16.64L876.16 0L870.78 0L863.55-16.45L863.55-16.45Q863.23-17.15 862.75-18.37L862.75-18.37L862.75-18.37Q862.27-19.58 861.70-21.06L861.70-21.06L861.70-21.06Q861.12-22.53 860.48-24.16L860.48-24.16L860.48-24.16Q859.84-25.79 859.26-27.46L859.26-27.46L859.26-27.46Q859.26-25.79 859.23-24.16L859.23-24.16L859.23-24.16Q859.20-22.53 859.14-21.09L859.14-21.09L859.14-21.09Q859.07-19.65 859.04-18.53L859.04-18.53L859.04-18.53Q859.01-17.41 859.01-16.77L859.01-16.77L858.37 0L851.20 0L853.76-43.46L859.71-43.46L870.66-16.32L870.66-16.32Q871.23-14.85 871.97-13.12L871.97-13.12L871.97-13.12Q872.70-11.39 873.34-9.73L873.34-9.73L873.34-9.73Q873.98-11.39 874.69-13.09L874.69-13.09L874.69-13.09Q875.39-14.78 876.03-16.32L876.03-16.32L887.04-43.46L892.86-43.46L895.42 0L888.32 0L887.62-16.58L887.62-16.58Q887.55-18.18 887.46-21.15L887.46-21.15L887.46-21.15Q887.36-24.13 887.30-27.20L887.30-27.20L887.30-27.20Q886.72-25.60 886.11-24L886.11-24L886.11-24Q885.50-22.40 884.99-20.99L884.99-20.99L884.99-20.99Q884.48-19.58 884.03-18.43L884.03-18.43L884.03-18.43Q883.58-17.28 883.33-16.64L883.33-16.64ZM928.77-30.53L928.77-15.42L928.77-15.42Q928.77-11.58 929.25-8.99L929.25-8.99L929.25-8.99Q929.73-6.40 930.30-4.80L930.30-4.80L930.30-4.80Q931.01-2.88 931.84-1.79L931.84-1.79L926.14 0.51L926.14 0.51Q925.31-0.32 924.61-1.47L924.61-1.47L924.61-1.47Q924.03-2.50 923.52-3.94L923.52-3.94L923.52-3.94Q923.01-5.38 922.88-7.36L922.88-7.36L922.88-7.36Q921.79-3.52 919.39-1.57L919.39-1.57L919.39-1.57Q916.99 0.38 912.90 0.38L912.90 0.38L912.90 0.38Q909.89 0.38 907.68-0.74L907.68-0.74L907.68-0.74Q905.47-1.86 904.00-3.94L904.00-3.94L904.00-3.94Q902.53-6.02 901.82-8.96L901.82-8.96L901.82-8.96Q901.12-11.90 901.12-15.49L901.12-15.49L901.12-15.49Q901.12-19.14 902.24-22.24L902.24-22.24L902.24-22.24Q903.36-25.34 905.38-27.58L905.38-27.58L905.38-27.58Q907.39-29.82 910.21-31.10L910.21-31.10L910.21-31.10Q913.02-32.38 916.42-32.38L916.42-32.38L916.42-32.38Q918.34-32.38 920.42-32.10L920.42-32.10L920.42-32.10Q922.50-31.81 924.29-31.49L924.29-31.49L924.29-31.49Q926.08-31.17 927.33-30.88L927.33-30.88L927.33-30.88Q928.58-30.59 928.77-30.53L928.77-30.53ZM914.11-4.74L914.11-4.74Q915.71-4.74 917.06-5.82L917.06-5.82L917.06-5.82Q918.40-6.91 919.39-8.67L919.39-8.67L919.39-8.67Q920.38-10.43 920.93-12.70L920.93-12.70L920.93-12.70Q921.47-14.98 921.47-17.34L921.47-17.34L921.47-26.56L921.47-26.56Q920.83-26.75 919.55-27.01L919.55-27.01L919.55-27.01Q918.27-27.26 917.25-27.26L917.25-27.26L917.25-27.26Q914.82-27.26 913.25-26.43L913.25-26.43L913.25-26.43Q911.68-25.60 910.72-24.13L910.72-24.13L910.72-24.13Q909.76-22.66 909.38-20.61L909.38-20.61L909.38-20.61Q908.99-18.56 908.99-16.13L908.99-16.13L908.99-16.13Q908.99-13.89 909.12-11.84L909.12-11.84L909.12-11.84Q909.25-9.79 909.79-8.19L909.79-8.19L909.79-8.19Q910.34-6.59 911.36-5.66L911.36-5.66L911.36-5.66Q912.38-4.74 914.11-4.74L914.11-4.74ZM950.34-25.22L950.34-25.22Q949.18-25.22 948.03-24.64L948.03-24.64L948.03-24.64Q946.88-24.06 945.98-23.07L945.98-23.07L945.98-23.07Q945.09-22.08 944.51-20.67L944.51-20.67L944.51-20.67Q943.94-19.26 943.94-17.54L943.94-17.54L943.94 0L936.64 0L936.64-16.13L936.64-16.13Q936.64-19.97 936.13-22.56L936.13-22.56L936.13-22.56Q935.62-25.15 935.04-26.75L935.04-26.75L935.04-26.75Q934.34-28.61 933.50-29.76L933.50-29.76L939.26-32.06L939.26-32.06Q939.84-31.36 940.48-30.34L940.48-30.34L940.48-30.34Q940.99-29.44 941.50-28.22L941.50-28.22L941.50-28.22Q942.02-27.01 942.34-25.34L942.34-25.34L942.34-25.34Q943.62-29.06 946.05-30.69L946.05-30.69L946.05-30.69Q948.48-32.32 951.55-32.32L951.55-32.32L951.55-32.32Q953.02-32.32 954.30-31.97L954.30-31.97L954.30-31.97Q955.58-31.62 955.52-31.62L955.52-31.62L953.47-24.51L953.47-24.51Q953.54-24.51 952.74-24.86L952.74-24.86L952.74-24.86Q951.94-25.22 950.34-25.22L950.34-25.22ZM959.68-45.12L966.98-46.40L966.98-28.16L966.98-28.16Q967.49-28.80 968.29-29.54L968.29-29.54L968.29-29.54Q969.09-30.27 970.30-30.91L970.30-30.91L970.30-30.91Q971.52-31.55 973.12-32L973.12-32L973.12-32Q974.72-32.45 976.83-32.45L976.83-32.45L976.83-32.45Q978.82-32.45 980.54-31.87L980.54-31.87L980.54-31.87Q982.27-31.30 983.52-30.21L983.52-30.21L983.52-30.21Q984.77-29.12 985.50-27.55L985.50-27.55L985.50-27.55Q986.24-25.98 986.24-24L986.24-24L986.24-24Q986.24-21.12 985.06-19.26L985.06-19.26L985.06-19.26Q983.87-17.41 982.40-16.32L982.40-16.32L982.40-16.32Q980.74-15.04 978.56-14.27L978.56-14.27L987.52 0L979.26 0L970.05-15.94L969.98-16.58L969.98-16.58Q970.50-16.70 971.94-17.15L971.94-17.15L971.94-17.15Q973.38-17.60 974.91-18.43L974.91-18.43L974.91-18.43Q976.45-19.26 977.63-20.51L977.63-20.51L977.63-20.51Q978.82-21.76 978.82-23.49L978.82-23.49L978.82-23.49Q978.82-25.34 977.73-26.30L977.73-26.30L977.73-26.30Q976.64-27.26 974.85-27.26L974.85-27.26L974.85-27.26Q972.42-27.26 970.88-26.30L970.88-26.30L970.88-26.30Q969.34-25.34 968.48-24.13L968.48-24.13L968.48-24.13Q967.62-22.91 967.30-21.82L967.30-21.82L967.30-21.82Q966.98-20.74 966.98-20.54L966.98-20.54L966.98 0L959.68 0L959.68-45.12ZM989.44-15.17L989.44-15.17Q989.44-19.46 990.62-22.72L990.62-22.72L990.62-22.72Q991.81-25.98 993.89-28.19L993.89-28.19L993.89-28.19Q995.97-30.40 998.78-31.52L998.78-31.52L998.78-31.52Q1001.60-32.64 1004.86-32.64L1004.86-32.64L1004.86-32.64Q1007.74-32.64 1009.76-31.94L1009.76-31.94L1009.76-31.94Q1011.78-31.23 1013.06-30.02L1013.06-30.02L1013.06-30.02Q1014.34-28.80 1014.94-27.14L1014.94-27.14L1014.94-27.14Q1015.55-25.47 1015.55-23.55L1015.55-23.55L1015.55-23.55Q1015.55-21.25 1014.27-19.17L1014.27-19.17L1014.27-19.17Q1012.99-17.09 1010.59-15.52L1010.59-15.52L1010.59-15.52Q1008.19-13.95 1004.80-13.02L1004.80-13.02L1004.80-13.02Q1001.41-12.10 997.18-12.03L997.18-12.03L997.18-12.03Q997.38-10.56 997.79-9.25L997.79-9.25L997.79-9.25Q998.21-7.94 999.01-6.94L999.01-6.94L999.01-6.94Q999.81-5.95 1001.09-5.38L1001.09-5.38L1001.09-5.38Q1002.37-4.80 1004.29-4.80L1004.29-4.80L1004.29-4.80Q1005.70-4.80 1007.30-5.12L1007.30-5.12L1007.30-5.12Q1008.90-5.44 1010.24-5.89L1010.24-5.89L1010.24-5.89Q1011.84-6.40 1013.38-7.04L1013.38-7.04L1015.30-2.50L1015.30-2.50Q1013.63-1.66 1011.71-1.02L1011.71-1.02L1011.71-1.02Q1010.05-0.45 1007.87 0L1007.87 0L1007.87 0Q1005.70 0.45 1003.26 0.45L1003.26 0.45L1003.26 0.45Q999.55 0.45 996.93-0.67L996.93-0.67L996.93-0.67Q994.30-1.79 992.64-3.84L992.64-3.84L992.64-3.84Q990.98-5.89 990.21-8.77L990.21-8.77L990.21-8.77Q989.44-11.65 989.44-15.17L989.44-15.17ZM1004.29-27.65L1004.29-27.65Q1002.18-27.65 1000.80-26.66L1000.80-26.66L1000.80-26.66Q999.42-25.66 998.59-24.10L998.59-24.10L998.59-24.10Q997.76-22.53 997.41-20.58L997.41-20.58L997.41-20.58Q997.06-18.62 996.99-16.64L996.99-16.64L996.99-16.64Q1000.06-16.77 1002.21-17.44L1002.21-17.44L1002.21-17.44Q1004.35-18.11 1005.70-19.10L1005.70-19.10L1005.70-19.10Q1007.04-20.10 1007.65-21.25L1007.65-21.25L1007.65-21.25Q1008.26-22.40 1008.26-23.55L1008.26-23.55L1008.26-23.55Q1008.26-25.41 1007.17-26.53L1007.17-26.53L1007.17-26.53Q1006.08-27.65 1004.29-27.65L1004.29-27.65ZM1018.11-26.69L1018.11-31.87L1023.87-31.87L1025.15-39.36L1031.17-40.70L1031.17-31.87L1039.04-31.87L1038.14-26.69L1031.17-26.69L1031.17-7.74L1031.17-7.74Q1031.17-6.08 1032.06-5.60L1032.06-5.60L1032.06-5.60Q1032.96-5.12 1034.05-5.12L1034.05-5.12L1034.05-5.12Q1034.94-5.12 1035.84-5.25L1035.84-5.25L1035.84-5.25Q1036.74-5.38 1037.44-5.57L1037.44-5.57L1037.44-5.57Q1038.27-5.76 1039.04-6.02L1039.04-6.02L1040.26-1.22L1039.68-1.02L1039.68-1.02Q1039.10-0.77 1037.98-0.48L1037.98-0.48L1037.98-0.48Q1036.86-0.19 1035.36 0.03L1035.36 0.03L1035.36 0.03Q1033.86 0.26 1032.06 0.26L1032.06 0.26L1032.06 0.26Q1030.27 0.26 1028.77-0.13L1028.77-0.13L1028.77-0.13Q1027.26-0.51 1026.18-1.38L1026.18-1.38L1026.18-1.38Q1025.09-2.24 1024.48-3.58L1024.48-3.58L1024.48-3.58Q1023.87-4.93 1023.87-6.91L1023.87-6.91L1023.87-26.69L1018.11-26.69ZM1052.61 12.86L1045.31 14.14L1045.31-16.13L1045.31-16.13Q1045.31-19.97 1044.80-22.56L1044.80-22.56L1044.80-22.56Q1044.29-25.15 1043.71-26.75L1043.71-26.75L1043.71-26.75Q1043.01-28.61 1042.18-29.76L1042.18-29.76L1047.94-32.06L1047.94-32.06Q1048.70-31.30 1049.34-30.14L1049.34-30.14L1049.34-30.14Q1049.86-29.18 1050.37-27.81L1050.37-27.81L1050.37-27.81Q1050.88-26.43 1051.14-24.58L1051.14-24.58L1051.14-24.58Q1052.22-28.42 1054.59-30.40L1054.59-30.40L1054.59-30.40Q1056.96-32.38 1061.18-32.38L1061.18-32.38L1061.18-32.38Q1064.19-32.38 1066.40-31.26L1066.40-31.26L1066.40-31.26Q1068.61-30.14 1070.05-28.06L1070.05-28.06L1070.05-28.06Q1071.49-25.98 1072.19-23.04L1072.19-23.04L1072.19-23.04Q1072.90-20.10 1072.90-16.51L1072.90-16.51L1072.90-16.51Q1072.90-12.86 1071.81-9.76L1071.81-9.76L1071.81-9.76Q1070.72-6.66 1068.70-4.42L1068.70-4.42L1068.70-4.42Q1066.69-2.18 1063.87-0.90L1063.87-0.90L1063.87-0.90Q1061.06 0.38 1057.60 0.38L1057.60 0.38L1057.60 0.38Q1056.38 0.38 1055.14 0.26L1055.14 0.26L1055.14 0.26Q1053.89 0.13 1052.61 0L1052.61 0L1052.61 12.86ZM1059.97-27.26L1059.97-27.26Q1058.37-27.26 1057.02-26.18L1057.02-26.18L1057.02-26.18Q1055.68-25.09 1054.69-23.30L1054.69-23.30L1054.69-23.30Q1053.70-21.50 1053.15-19.26L1053.15-19.26L1053.15-19.26Q1052.61-17.02 1052.61-14.66L1052.61-14.66L1052.61-5.44L1052.61-5.44Q1053.25-5.25 1054.53-4.99L1054.53-4.99L1054.53-4.99Q1055.81-4.74 1056.77-4.74L1056.77-4.74L1056.77-4.74Q1059.20-4.74 1060.80-5.57L1060.80-5.57L1060.80-5.57Q1062.40-6.40 1063.36-7.87L1063.36-7.87L1063.36-7.87Q1064.32-9.34 1064.70-11.39L1064.70-11.39L1064.70-11.39Q1065.09-13.44 1065.09-15.87L1065.09-15.87L1065.09-15.87Q1065.09-18.11 1064.96-20.16L1064.96-20.16L1064.96-20.16Q1064.83-22.21 1064.29-23.81L1064.29-23.81L1064.29-23.81Q1063.74-25.41 1062.72-26.34L1062.72-26.34L1062.72-26.34Q1061.70-27.26 1059.97-27.26L1059.97-27.26ZM1086.14 0.26L1086.14 0.26Q1082.50 0.26 1080.77-1.76L1080.77-1.76L1080.77-1.76Q1079.04-3.78 1079.04-6.91L1079.04-6.91L1079.04-45.12L1086.34-46.46L1086.34-7.62L1086.34-7.62Q1086.34-6.14 1086.91-5.57L1086.91-5.57L1086.91-5.57Q1087.49-4.99 1088.58-4.99L1088.58-4.99L1088.58-4.99Q1089.22-4.99 1089.82-5.06L1089.82-5.06L1089.82-5.06Q1090.43-5.12 1090.94-5.25L1090.94-5.25L1090.94-5.25Q1091.52-5.38 1091.97-5.50L1091.97-5.50L1092.86-0.90L1092.86-0.90Q1092.03-0.58 1091.01-0.32L1091.01-0.32L1091.01-0.32Q1090.11-0.06 1088.90 0.10L1088.90 0.10L1088.90 0.10Q1087.68 0.26 1086.14 0.26L1086.14 0.26ZM1122.75-30.53L1122.75-15.42L1122.75-15.42Q1122.75-11.58 1123.23-8.99L1123.23-8.99L1123.23-8.99Q1123.71-6.40 1124.29-4.80L1124.29-4.80L1124.29-4.80Q1124.99-2.88 1125.82-1.79L1125.82-1.79L1120.13 0.51L1120.13 0.51Q1119.30-0.32 1118.59-1.47L1118.59-1.47L1118.59-1.47Q1118.02-2.50 1117.50-3.94L1117.50-3.94L1117.50-3.94Q1116.99-5.38 1116.86-7.36L1116.86-7.36L1116.86-7.36Q1115.78-3.52 1113.38-1.57L1113.38-1.57L1113.38-1.57Q1110.98 0.38 1106.88 0.38L1106.88 0.38L1106.88 0.38Q1103.87 0.38 1101.66-0.74L1101.66-0.74L1101.66-0.74Q1099.46-1.86 1097.98-3.94L1097.98-3.94L1097.98-3.94Q1096.51-6.02 1095.81-8.96L1095.81-8.96L1095.81-8.96Q1095.10-11.90 1095.10-15.49L1095.10-15.49L1095.10-15.49Q1095.10-19.14 1096.22-22.24L1096.22-22.24L1096.22-22.24Q1097.34-25.34 1099.36-27.58L1099.36-27.58L1099.36-27.58Q1101.38-29.82 1104.19-31.10L1104.19-31.10L1104.19-31.10Q1107.01-32.38 1110.40-32.38L1110.40-32.38L1110.40-32.38Q1112.32-32.38 1114.40-32.10L1114.40-32.10L1114.40-32.10Q1116.48-31.81 1118.27-31.49L1118.27-31.49L1118.27-31.49Q1120.06-31.17 1121.31-30.88L1121.31-30.88L1121.31-30.88Q1122.56-30.59 1122.75-30.53L1122.75-30.53ZM1108.10-4.74L1108.10-4.74Q1109.70-4.74 1111.04-5.82L1111.04-5.82L1111.04-5.82Q1112.38-6.91 1113.38-8.67L1113.38-8.67L1113.38-8.67Q1114.37-10.43 1114.91-12.70L1114.91-12.70L1114.91-12.70Q1115.46-14.98 1115.46-17.34L1115.46-17.34L1115.46-26.56L1115.46-26.56Q1114.82-26.75 1113.54-27.01L1113.54-27.01L1113.54-27.01Q1112.26-27.26 1111.23-27.26L1111.23-27.26L1111.23-27.26Q1108.80-27.26 1107.23-26.43L1107.23-26.43L1107.23-26.43Q1105.66-25.60 1104.70-24.13L1104.70-24.13L1104.70-24.13Q1103.74-22.66 1103.36-20.61L1103.36-20.61L1103.36-20.61Q1102.98-18.56 1102.98-16.13L1102.98-16.13L1102.98-16.13Q1102.98-13.89 1103.10-11.84L1103.10-11.84L1103.10-11.84Q1103.23-9.79 1103.78-8.19L1103.78-8.19L1103.78-8.19Q1104.32-6.59 1105.34-5.66L1105.34-5.66L1105.34-5.66Q1106.37-4.74 1108.10-4.74L1108.10-4.74ZM1152.70-28.29L1148.61-24.38L1148.61-24.38Q1147.65-25.47 1146.66-26.24L1146.66-26.24L1146.66-26.24Q1145.66-27.01 1144.00-27.01L1144.00-27.01L1144.00-27.01Q1143.04-27.01 1141.86-26.72L1141.86-26.72L1141.86-26.72Q1140.67-26.43 1139.65-25.31L1139.65-25.31L1139.65-25.31Q1138.62-24.19 1137.95-22.02L1137.95-22.02L1137.95-22.02Q1137.28-19.84 1137.28-16.13L1137.28-16.13L1137.28-16.13Q1137.28-12.35 1137.95-10.14L1137.95-10.14L1137.95-10.14Q1138.62-7.94 1139.68-6.72L1139.68-6.72L1139.68-6.72Q1140.74-5.50 1141.95-5.15L1141.95-5.15L1141.95-5.15Q1143.17-4.80 1144.32-4.80L1144.32-4.80L1144.32-4.80Q1145.22-4.80 1146.18-4.96L1146.18-4.96L1146.18-4.96Q1147.14-5.12 1148.03-5.34L1148.03-5.34L1148.03-5.34Q1148.93-5.57 1149.60-5.76L1149.60-5.76L1149.60-5.76Q1150.27-5.95 1150.59-6.08L1150.59-6.08L1152.38-1.47L1152.38-1.47Q1152.19-1.41 1151.52-1.09L1151.52-1.09L1151.52-1.09Q1150.85-0.77 1149.70-0.45L1149.70-0.45L1149.70-0.45Q1148.54-0.13 1146.94 0.16L1146.94 0.16L1146.94 0.16Q1145.34 0.45 1143.36 0.45L1143.36 0.45L1143.36 0.45Q1139.65 0.45 1137.02-0.67L1137.02-0.67L1137.02-0.67Q1134.40-1.79 1132.70-3.84L1132.70-3.84L1132.70-3.84Q1131.01-5.89 1130.21-8.77L1130.21-8.77L1130.21-8.77Q1129.41-11.65 1129.41-15.17L1129.41-15.17L1129.41-15.17Q1129.41-19.39 1130.53-22.66L1130.53-22.66L1130.53-22.66Q1131.65-25.92 1133.63-28.13L1133.63-28.13L1133.63-28.13Q1135.62-30.34 1138.30-31.49L1138.30-31.49L1138.30-31.49Q1140.99-32.64 1144.06-32.64L1144.06-32.64L1144.06-32.64Q1147.07-32.64 1149.15-31.49L1149.15-31.49L1149.15-31.49Q1151.23-30.34 1152.70-28.29L1152.70-28.29ZM1155.01-15.17L1155.01-15.17Q1155.01-19.46 1156.19-22.72L1156.19-22.72L1156.19-22.72Q1157.38-25.98 1159.46-28.19L1159.46-28.19L1159.46-28.19Q1161.54-30.40 1164.35-31.52L1164.35-31.52L1164.35-31.52Q1167.17-32.64 1170.43-32.64L1170.43-32.64L1170.43-32.64Q1173.31-32.64 1175.33-31.94L1175.33-31.94L1175.33-31.94Q1177.34-31.23 1178.62-30.02L1178.62-30.02L1178.62-30.02Q1179.90-28.80 1180.51-27.14L1180.51-27.14L1180.51-27.14Q1181.12-25.47 1181.12-23.55L1181.12-23.55L1181.12-23.55Q1181.12-21.25 1179.84-19.17L1179.84-19.17L1179.84-19.17Q1178.56-17.09 1176.16-15.52L1176.16-15.52L1176.16-15.52Q1173.76-13.95 1170.37-13.02L1170.37-13.02L1170.37-13.02Q1166.98-12.10 1162.75-12.03L1162.75-12.03L1162.75-12.03Q1162.94-10.56 1163.36-9.25L1163.36-9.25L1163.36-9.25Q1163.78-7.94 1164.58-6.94L1164.58-6.94L1164.58-6.94Q1165.38-5.95 1166.66-5.38L1166.66-5.38L1166.66-5.38Q1167.94-4.80 1169.86-4.80L1169.86-4.80L1169.86-4.80Q1171.26-4.80 1172.86-5.12L1172.86-5.12L1172.86-5.12Q1174.46-5.44 1175.81-5.89L1175.81-5.89L1175.81-5.89Q1177.41-6.40 1178.94-7.04L1178.94-7.04L1180.86-2.50L1180.86-2.50Q1179.20-1.66 1177.28-1.02L1177.28-1.02L1177.28-1.02Q1175.62-0.45 1173.44 0L1173.44 0L1173.44 0Q1171.26 0.45 1168.83 0.45L1168.83 0.45L1168.83 0.45Q1165.12 0.45 1162.50-0.67L1162.50-0.67L1162.50-0.67Q1159.87-1.79 1158.21-3.84L1158.21-3.84L1158.21-3.84Q1156.54-5.89 1155.78-8.77L1155.78-8.77L1155.78-8.77Q1155.01-11.65 1155.01-15.17L1155.01-15.17ZM1169.86-27.65L1169.86-27.65Q1167.74-27.65 1166.37-26.66L1166.37-26.66L1166.37-26.66Q1164.99-25.66 1164.16-24.10L1164.16-24.10L1164.16-24.10Q1163.33-22.53 1162.98-20.58L1162.98-20.58L1162.98-20.58Q1162.62-18.62 1162.56-16.64L1162.56-16.64L1162.56-16.64Q1165.63-16.77 1167.78-17.44L1167.78-17.44L1167.78-17.44Q1169.92-18.11 1171.26-19.10L1171.26-19.10L1171.26-19.10Q1172.61-20.10 1173.22-21.25L1173.22-21.25L1173.22-21.25Q1173.82-22.40 1173.82-23.55L1173.82-23.55L1173.82-23.55Q1173.82-25.41 1172.74-26.53L1172.74-26.53L1172.74-26.53Q1171.65-27.65 1169.86-27.65L1169.86-27.65ZM1194.30-8.96L1194.30-8.96Q1196.54-8.96 1197.76-7.62L1197.76-7.62L1197.76-7.62Q1198.98-6.27 1198.98-4.16L1198.98-4.16L1198.98-4.16Q1198.98-2.11 1197.76-0.70L1197.76-0.70L1197.76-0.70Q1196.54 0.70 1194.11 0.70L1194.11 0.70L1194.11 0.70Q1191.87 0.70 1190.69-0.70L1190.69-0.70L1190.69-0.70Q1189.50-2.11 1189.50-4.03L1189.50-4.03L1189.50-4.03Q1189.50-6.08 1190.72-7.52L1190.72-7.52L1190.72-7.52Q1191.94-8.96 1194.30-8.96L1194.30-8.96ZM1191.17-14.08L1191.17-43.33L1199.30-43.33L1197.44-14.08L1191.17-14.08Z" fill="#ccc"/></g></g><style>text {
  font-size: 64px;
  font-family: Arial Black;
  dominant-baseline: central;
  text-anchor: middle;
}</style></svg>